<?xml version="1.0" standalone="no"?><!DOCTYPE svg PUBLIC "-//W3C//DTD SVG 1.1//EN" "http://www.w3.org/Graphics/SVG/1.1/DTD/svg11.dtd"><svg class="icon" width="200px" height="200.00px" viewBox="0 0 1024 1024" version="1.1" xmlns="http://www.w3.org/2000/svg"><path d="M398.071968 932.51103c-197.002754 0-357.279485-160.273535-357.279486-357.276289S201.069214 217.958453 398.071968 217.958453c35.312991 0 70.165627 5.150211 103.720321 15.322756l397.889744-142.249396a22.378321 22.378321 0 0 1 29.6257 24.657713c-11.269083 69.468702-46.025812 134.858156-99.535575 188.719578l111.472811 0.677743a22.378321 22.378321 0 0 1 19.392414 33.308532c-27.99528 50.018744-69.184178 91.955718-120.667104 123.27258l133.387581 43.238113a22.381518 22.381518 0 0 1 8.404658 37.614761c-60.517374 56.732241-140.200181 88.333627-231.321508 91.94293-28.44924 171.248503-176.587331 298.047267-352.369042 298.047267z m0-669.795935c-172.325859 0-312.522843 140.196984-312.522844 312.522843 0 172.322662 140.196984 312.519647 312.522844 312.519647 159.563823 0 293.085673-119.420312 310.582323-277.788493a22.381518 22.381518 0 0 1 22.244051-19.919902h0.095907l1.745509 0.003197c71.923924 0 136.037813-18.976816 187.722145-55.239287l-145.36318-47.12235a22.378321 22.378321 0 0 1-1.946914-41.844264c52.154276-22.445456 95.306072-55.341588 126.6581-96.249158l-129.554494-0.786439a22.378321 22.378321 0 0 1-13.292723-40.27778c59.245006-44.462527 99.861659-99.733783 119.100622-161.520328L509.781349 277.954731a22.426275 22.426275 0 0 1-14.488364 0.198208 312.283076 312.283076 0 0 0-97.221017-15.437844z" fill="#2c2c2c" /><path d="M423.21561 742.682127h-0.006394c-42.077637-0.003197-83.119478-14.6578-115.57124-41.262427a22.378321 22.378321 0 0 1 3.001892-36.684462l258.747738-149.394474a22.381518 22.381518 0 0 1 33.270169 15.74155c12.234548 74.30242-23.375755 149.528744-88.605363 187.194655-27.656408 15.962137-59.06598 24.405158-90.836802 24.405158z m-58.206013-57.66254a138.093422 138.093422 0 0 0 58.199619 12.902701 137.102382 137.102382 0 0 0 68.461678-18.414161c39.126896-22.589317 64.12348-63.097275 68.068459-106.923618l-194.729756 112.435078zM178.837951 727.922026a131.200899 131.200899 0 0 1-65.501346-17.595755c-47.032837-27.157691-72.703968-81.396347-63.880516-134.970047a22.371927 22.371927 0 0 1 33.27017-15.741551l176.43388 101.869314a22.378321 22.378321 0 0 1 3.001892 36.684462 131.728388 131.728388 0 0 1-83.32408 29.753577z m-83.471138-109.327689c5.795985 21.889195 20.054173 41.252836 40.348113 52.969486a86.377122 86.377122 0 0 0 43.123025 11.601561 86.731978 86.731978 0 0 0 22.982535-3.10739l-106.453673-61.463657z" fill="#2c2c2c" /></svg>